<svg xmlns="http://www.w3.org/2000/svg" xmlns:xlink="http://www.w3.org/1999/xlink" version="1.1" x="0px" y="0px" width="100px" height="100px" viewBox="0 0 100 100" enable-background="new 0 0 100 100" xml:space="preserve">
<g id="Captions">
</g>
<g id="Your_Icon">
	<path d="M68.587,83.487H17.763c-0.69,0-1.25-0.56-1.25-1.25V31.414c0-0.69,0.56-1.25,1.25-1.25h50.824c0.69,0,1.25,0.56,1.25,1.25   v50.823C69.837,82.928,69.277,83.487,68.587,83.487z M19.013,80.987h48.324V32.664H19.013V80.987z"/>
	<path d="M82.237,69.836H31.413c-0.69,0-1.25-0.56-1.25-1.25V17.763c0-0.69,0.56-1.25,1.25-1.25h50.824c0.69,0,1.25,0.56,1.25,1.25   v50.823C83.487,69.276,82.928,69.836,82.237,69.836z M32.663,67.336h48.324V19.013H32.663V67.336z"/>
	<path d="M68.587,32.664c-0.32,0-0.64-0.122-0.884-0.366c-0.488-0.488-0.488-1.279,0-1.768l13.65-13.651   c0.488-0.488,1.279-0.488,1.768,0s0.488,1.279,0,1.768l-13.65,13.651C69.227,32.542,68.907,32.664,68.587,32.664z"/>
	<path d="M17.763,32.664c-0.32,0-0.64-0.122-0.884-0.366c-0.488-0.488-0.488-1.279,0-1.768l13.65-13.651   c0.488-0.488,1.279-0.488,1.768,0s0.488,1.279,0,1.768l-13.65,13.651C18.402,32.542,18.083,32.664,17.763,32.664z"/>
	<path d="M68.587,83.487c-0.32,0-0.64-0.122-0.884-0.366c-0.488-0.488-0.488-1.279,0-1.768l13.65-13.651   c0.488-0.488,1.279-0.488,1.768,0s0.488,1.279,0,1.768l-13.65,13.651C69.227,83.365,68.907,83.487,68.587,83.487z"/>
	<path d="M17.763,83.487c-0.32,0-0.64-0.122-0.884-0.366c-0.488-0.488-0.488-1.279,0-1.768l13.65-13.651   c0.488-0.488,1.279-0.488,1.768,0s0.488,1.279,0,1.768l-13.65,13.651C18.402,83.365,18.083,83.487,17.763,83.487z"/>
</g>
</svg>