<svg xmlns="http://www.w3.org/2000/svg" xmlns:xlink="http://www.w3.org/1999/xlink" version="1.1" x="0px" y="0px" viewBox="0 0 100 100" enable-background="new 0 0 100 100" xml:space="preserve"><g><path d="M25.112,63.747c-0.001,0.019-0.001,0.038-0.002,0.057c-0.004,0.133-0.007,0.265-0.011,0.394   c-0.004,0.134-0.007,0.266-0.01,0.396c-0.018,0.771-0.025,1.448,0.009,1.942c-0.563-0.135-1.452-0.424-2.442-0.746   c-1.268-0.412-2.784-0.904-4.239-1.277c-0.119-0.031-0.238-0.06-0.357-0.089c-0.118-0.029-0.236-0.057-0.353-0.084   c-0.711-0.164-1.395-0.29-2.013-0.353c0.003-0.011,0.006-0.022,0.009-0.033c0.033-0.118,0.065-0.236,0.098-0.353   c0.033-0.118,0.067-0.235,0.1-0.353c3.174-11.149,7.079-18.102,8.367-20.219c0.078-0.128,0.146-0.238,0.205-0.332   c1.259,0.466,2.957,1.001,5.118,1.485c-0.044,0.209-0.114,0.498-0.205,0.848c-0.098,0.38-0.22,0.832-0.359,1.336   c-0.136,0.492-0.287,1.032-0.448,1.601c-0.169,0.598-0.348,1.228-0.529,1.866c-1.357,4.774-2.895,10.185-2.895,11.558   C25.156,62.16,25.134,62.967,25.112,63.747z M30.536,66.47c-0.001,0.002-0.004,0.008-0.008,0.017   c-0.355,0.173-0.8,0.324-1.272,0.324c-0.285,0-0.559-0.056-0.814-0.167c-1.296-0.563-1.034-2.512-1.01-2.673   c0.004-0.014,0.012-0.044,0.025-0.086c0.263-0.041,0.528-0.065,0.783-0.065c0.397,0,0.737,0.06,1.009,0.177   c0.279,0.215,0.829,0.572,1.551,1.02c0.156,0.124,0.312,0.249,0.465,0.375c-0.238,0.361-0.493,0.733-0.698,1.024L30.536,66.47z    M35.739,67.967c-0.091,0.207-0.183,0.43-0.279,0.67c-0.042,0.099-0.084,0.2-0.13,0.307c-0.103,0.244-0.215,0.507-0.334,0.793   c-0.516,0.404-1.025,0.608-1.512,0.608h0c-1.247,0-2.101-1.334-2.246-1.577c-0.208-0.888-0.14-1.487-0.074-1.78   c0.021-0.095,0.042-0.159,0.053-0.189c0.104-0.149,0.424-0.607,0.743-1.095c0.066-0.101,0.132-0.203,0.196-0.304   c0.033-0.052,0.066-0.104,0.098-0.155c0.032-0.051,0.063-0.102,0.093-0.151c0.149-0.246,0.272-0.466,0.337-0.62   c0.056-0.029,0.229-0.084,0.564-0.084c0.863,0,2.043,0.346,2.53,0.988c0.471,0.62,0.575,0.907,0.224,1.902   c-0.038,0.106-0.08,0.22-0.128,0.344c-0.041,0.106-0.086,0.219-0.135,0.34C35.74,67.965,35.739,67.966,35.739,67.967z    M39.035,71.577c-0.068,0.024-0.129,0.067-0.177,0.125c-0.157,0.192-0.154,0.726-0.12,1.161c-0.002,0-0.004,0-0.007,0   c-1.351,0-2.013-0.235-2.17-0.437l-0.028-0.035L36.5,72.365c-0.055-0.044-1.336-1.113-0.408-3.452c0,0,0,0,0,0   c0.086-0.204,0.166-0.395,0.239-0.573c0.012-0.029,0.023-0.057,0.035-0.085c0.038-0.087,0.076-0.17,0.113-0.248   c0.055-0.118,0.109-0.226,0.16-0.325c0.438-0.836,0.759-1.009,1.184-1.009c0.297,0,0.681,0.088,1.165,0.22   c1.309,0.357,1.339,2.496,1.327,3.014c-0.001,0.033-0.002,0.06-0.003,0.079l-0.082,0.294l-0.101,0.362l-0.045,0.162   c-0.427,0.164-0.747,0.478-0.945,0.673C39.104,71.51,39.063,71.551,39.035,71.577z M42.427,75.413   c-0.257,0-0.505-0.019-0.738-0.058c-1.805-1.018-2.168-2.001-2.169-2.004c-0.005-0.024-0.01-0.061-0.016-0.106   c-0.017-0.137-0.036-0.354-0.048-0.566c-0.011-0.197-0.016-0.388-0.008-0.506c0.064-0.048,0.127-0.111,0.199-0.182   c0.156-0.154,0.366-0.36,0.614-0.478c0.121-0.057,0.25-0.095,0.387-0.095c0.005,0,0.01,0.001,0.015,0.001   c0.068,0.001,0.137,0.011,0.207,0.03c0.277,0.077,0.524,0.11,0.737,0.13c0.069,0.007,0.135,0.012,0.197,0.017   c0.473,0.038,0.689,0.055,0.976,0.45c0.187,0.258,0.524,0.661,0.898,1.094c0.528,0.609,1.13,1.277,1.499,1.681   C44.6,75.054,43.534,75.413,42.427,75.413z M67.396,65.818c-0.525,0.681-1.234,1.275-1.523,1.275c-0.001,0-0.002,0-0.003,0   c-0.689-0.37-1.822-1.044-2.704-1.731c-0.11-0.086-0.216-0.172-0.318-0.258c-0.105-0.089-0.205-0.178-0.298-0.266   c-0.196-0.186-0.36-0.368-0.477-0.539c-0.03-0.044-0.065-0.089-0.102-0.135c-0.693-0.857-2.535-1.934-4.575-3.013   c-0.267-0.142-0.538-0.283-0.81-0.424c-0.279-0.145-0.567-0.295-0.69-0.364c-0.097-0.073-0.174-0.116-0.284-0.131l-0.309-0.041   l-0.358,0.507l0.138,0.277c0.058,0.114,0.131,0.177,0.244,0.246c0.712,0.575,3.632,3.243,4.979,4.613   c0.097,0.098,0.186,0.19,0.265,0.274c0.102,0.107,0.187,0.201,0.254,0.28c0.079,0.093,0.133,0.164,0.156,0.208   c0.019,0.053,0.043,0.115,0.07,0.184c0.313,0.808,0.896,2.312-0.487,3.599c-0.974,0.907-1.55,1.261-2.053,1.261   c-0.218,0-0.446-0.062-0.764-0.206c-0.095-0.043-0.199-0.095-0.318-0.157c-0.946-0.496-3.881-3.426-5.3-4.906   c-0.188-0.197-0.531-0.204-0.727-0.016c-0.205,0.196-0.212,0.522-0.016,0.727c0.416,0.434,3.979,4.135,5.416,5.019   c0.028,1.098-0.432,1.608-1.428,2.289c-0.353,0.242-0.655,0.349-0.98,0.349c-0.526,0-1.167-0.285-2.138-0.952   c-0.039-0.045-0.078-0.089-0.118-0.133l-0.007-0.007c-2.183-2.415-5.728-3.642-5.765-3.655c-0.053-0.018-0.108-0.027-0.164-0.027   c-0.221,0-0.416,0.14-0.487,0.349c-0.091,0.268,0.053,0.561,0.322,0.652c0.032,0.011,3.167,1.096,5.181,3.208   c-0.132,0.529-0.759,1.319-2.128,1.679c-0.079,0.021-0.165,0.031-0.255,0.031c-1.076,0-2.682-1.466-3.973-2.644   c-0.23-0.21-0.454-0.414-0.674-0.611c-0.35-0.404-0.659-0.775-0.828-1.008c-0.482-0.666-1.001-0.707-1.504-0.747   c-0.005,0-0.009-0.001-0.014-0.001c-0.273-0.177-0.566-0.364-0.877-0.559l0.058-0.21l0.002-0.037   c0.009-0.135,0.2-3.313-1.853-3.873c-0.556-0.151-0.976-0.245-1.355-0.245c-0.362,0-0.663,0.09-0.93,0.27   c-0.031-0.426-0.215-0.805-0.574-1.278c-0.664-0.875-2.075-1.274-3.106-1.274c-0.672,0-1.095,0.176-1.223,0.508   c-0.043,0.113-0.152,0.308-0.296,0.544c-0.16-0.098-0.314-0.192-0.46-0.283c-0.743-0.46-1.301-0.821-1.561-1.025l-0.049-0.038   l-0.057-0.026c-0.224-0.101-0.476-0.171-0.754-0.211c-0.181-0.026-0.372-0.04-0.574-0.04c-0.081,0-0.162,0.002-0.244,0.006   c-0.063,0.003-0.125,0.007-0.188,0.012c-0.147,0.012-0.295,0.03-0.442,0.052c-0.147,0.022-0.294,0.049-0.438,0.079   c-0.384,0.08-0.754,0.185-1.088,0.294c0.02-0.715,0.038-1.446,0.038-2.15c0-1.273,1.657-7.103,2.868-11.36   c0.586-2.062,1.037-3.656,1.313-4.714c0.013-0.021,0.026-0.042,0.038-0.061c0.394,0.071,1.101,0.206,1.767,0.362   c0.19,0.045,0.434,0.066,0.746,0.066c0.625,0,1.432-0.087,2.232-0.189c-0.886,0.878-1.899,1.691-2.508,2.179   c-0.117,0.094-0.22,0.177-0.306,0.246c-0.218,0.177-0.372,0.285-0.484,0.363c-0.387,0.27-0.441,0.385-0.416,0.885l0.007,0.146   l0.021,0.055c0.481,1.237,1.31,1.864,2.464,1.864c0.745,0,1.508-0.254,2.182-0.478c0.295-0.098,0.574-0.191,0.817-0.25   c1.385-0.338,2.595-1.238,3.478-1.895c0.082-0.061,0.161-0.12,0.236-0.175c0.316-0.02,0.569-0.242,0.794-0.439   c0.079-0.069,0.196-0.171,0.251-0.198c0.23-0.013,0.695-0.193,2.062-0.758c0.605-0.25,1.231-0.509,1.666-0.667   c0.165-0.06,0.317-0.1,0.458-0.125c0.735,0.283,1.409,0.619,2.008,1.01c0.961,0.626,2.194,1.399,3.623,2.294   c4.459,2.795,10.565,6.621,13.517,9.246c0.671,0.685,1.179,1.188,1.592,1.598c1.321,1.311,1.321,1.311,1.716,2.418l0.026,0.074   C68.279,64.39,67.484,65.681,67.396,65.818z M61.838,65.147c-0.284,0.123-0.573,0.25-0.841,0.37   c-0.951-1.01-2.702-2.623-3.921-3.718c1.542,0.814,3.849,2.099,4.401,2.909C61.576,64.852,61.699,64.999,61.838,65.147z    M71.878,57.773c-0.099,0.071-0.196,0.143-0.293,0.214c-0.792,0.581-1.5,1.136-1.889,1.525c-0.786,0.786-1.379,1.091-1.657,1.202   c-0.554-0.586-2.408-2.529-3.219-3.18c-0.93-0.748-9.726-6.726-10.1-6.98l-8.057-4.814c-0.105-0.087-0.358-0.245-0.81-0.245   c-0.06,0-0.122,0.003-0.185,0.009c-0.212,0.019-0.441,0.068-0.686,0.148c-0.04,0.013-0.079,0.026-0.12,0.041   c-0.134,0.048-0.285,0.106-0.446,0.169c-0.381,0.149-0.821,0.331-1.251,0.509c-0.688,0.284-1.627,0.673-1.825,0.704   c-0.265,0.006-0.479,0.194-0.687,0.376c-0.102,0.089-0.292,0.255-0.357,0.262l-0.156-0.032l-0.129,0.094   c-0.107,0.078-0.222,0.163-0.344,0.254c-0.834,0.62-1.976,1.47-3.218,1.773c-0.272,0.066-0.564,0.164-0.874,0.267   c-0.621,0.207-1.326,0.441-1.954,0.441c-0.527,0-1.279-0.141-1.769-1.35L31.85,49.13c-0.003-0.065-0.007-0.131-0.007-0.173   c0.029-0.022,0.073-0.053,0.114-0.081c0.115-0.08,0.289-0.201,0.528-0.396c0.084-0.069,0.186-0.15,0.301-0.243   c0.77-0.617,2.166-1.736,3.196-2.894c0.121-0.136,0.237-0.273,0.347-0.41c0.107-0.134,0.208-0.268,0.301-0.401   c0.077-0.11,0.149-0.219,0.214-0.327c0.946-1.574,1.265-2.007,2.995-2.526c0.684-0.205,1.998-0.683,3.389-1.189   c2.033-0.74,4.814-1.751,5.303-1.76c0.155,0.033,0.586,0.149,1.127,0.296c1.809,0.49,4.837,1.309,6.088,1.356   c1.053,0.04,3.483,0.726,5.091,1.181c0.905,0.256,1.428,0.402,1.648,0.433c0.13,0.019,0.314,0.028,0.548,0.028   c0.5,0,1.408-0.054,2.11-0.146c0.128-0.017,0.249-0.035,0.36-0.054c0.225-0.039,0.406-0.084,0.511-0.132l0.126-0.059   c0.109-0.052,0.256-0.121,0.418-0.192c0.577,0.872,5.256,8.019,7.711,14.108c0.046,0.114,0.091,0.228,0.136,0.341   c0.013,0.034,0.027,0.068,0.04,0.101C73.727,56.472,72.769,57.128,71.878,57.773z M78.925,61.238c-0.237,0-0.395,0.077-0.521,0.14   c-0.041,0.02-0.081,0.04-0.126,0.057c-0.088,0.035-0.195,0.063-0.362,0.071c-0.034,0.002-0.069,0.003-0.108,0.003   c-0.087,0-0.184-0.005-0.29-0.015c-0.102-0.009-0.213-0.023-0.332-0.041c-0.124-0.019-0.256-0.043-0.397-0.071   c-0.099-0.02-0.201-0.042-0.309-0.067c-0.001-0.043-0.003-0.087-0.005-0.131c-0.045-1.394-0.484-3.095-1.151-4.913   c-0.042-0.116-0.086-0.231-0.13-0.348c-0.01-0.028-0.021-0.055-0.032-0.083c-0.033-0.087-0.067-0.175-0.102-0.262   c-0.011-0.027-0.021-0.054-0.031-0.081c-0.045-0.113-0.09-0.227-0.137-0.341c-2.39-5.903-6.73-12.595-7.638-13.971   c-0.08-0.122-0.135-0.203-0.158-0.237l-0.036-0.053l-0.029-0.021l-0.023-0.017c-0.042-0.031-0.086-0.058-0.13-0.082   c0.21-0.101,0.473-0.227,0.79-0.379c0.081-0.039,0.165-0.079,0.254-0.122l1-0.309c0.004-0.002,0.384-0.195,0.812-0.195   c0.233,0,0.435,0.058,0.602,0.172l0.057,0.039c1.846,1.245,6.953,5.469,10.443,15.761c0.039,0.116,0.078,0.232,0.117,0.35   c0.038,0.114,0.075,0.23,0.113,0.345c0.358,1.109,0.698,2.285,1.013,3.532C80.589,60.642,79.193,61.221,78.925,61.238z"></path><path d="M57.076,61.799c1.219,1.095,2.971,2.709,3.921,3.718c0.268-0.12,0.557-0.247,0.841-0.37   c-0.14-0.148-0.262-0.295-0.361-0.439C60.925,63.898,58.617,62.613,57.076,61.799z"></path><path d="M30.8,65.017c-0.722-0.447-1.272-0.805-1.551-1.02c-0.272-0.118-0.611-0.177-1.009-0.177c-0.255,0-0.519,0.025-0.783,0.065   c-0.013,0.042-0.021,0.072-0.025,0.086c-0.024,0.161-0.286,2.11,1.01,2.673c0.255,0.111,0.529,0.167,0.814,0.167   c0.472,0,0.916-0.151,1.272-0.324c0.004-0.009,0.006-0.015,0.008-0.017l0.031-0.053c0.205-0.291,0.46-0.663,0.698-1.024   C31.112,65.266,30.956,65.141,30.8,65.017z"></path><path d="M28.581,47.967c0.161-0.569,0.312-1.11,0.448-1.601c0.139-0.504,0.261-0.956,0.359-1.336   c0.091-0.35,0.161-0.639,0.205-0.848c-2.161-0.484-3.859-1.019-5.118-1.485c-0.059,0.094-0.127,0.204-0.205,0.332   c-1.288,2.116-5.194,9.069-8.367,20.219c-0.033,0.117-0.067,0.235-0.1,0.353c-0.033,0.117-0.066,0.235-0.098,0.353   c-0.003,0.011-0.006,0.022-0.009,0.033c0.618,0.063,1.302,0.19,2.013,0.353c0.117,0.027,0.235,0.055,0.353,0.084   c0.118,0.029,0.237,0.059,0.357,0.089c1.455,0.373,2.971,0.865,4.239,1.277c0.99,0.322,1.879,0.61,2.442,0.746   c-0.034-0.494-0.027-1.171-0.009-1.942c0.003-0.129,0.006-0.261,0.01-0.396c0.003-0.129,0.007-0.261,0.011-0.394   c0.001-0.019,0.001-0.038,0.002-0.057c0.022-0.781,0.044-1.588,0.044-2.357c0-1.373,1.538-6.784,2.895-11.558   C28.233,49.195,28.412,48.565,28.581,47.967z"></path><path d="M14.761,64.666c0.033-0.122,0.066-0.242,0.099-0.363c0.033-0.12,0.065-0.241,0.098-0.36   c0.006-0.022,0.012-0.044,0.018-0.066c0.033-0.118,0.065-0.236,0.098-0.353c0.033-0.118,0.066-0.236,0.099-0.353   c3.207-11.311,7.174-18.373,8.479-20.517c0.049-0.08,0.094-0.153,0.135-0.22c0.004-0.007,0.009-0.014,0.013-0.021   c-0.703-0.32-1.389-0.629-2.059-0.93c-0.111-0.05-0.22-0.098-0.33-0.147c-4.813-2.15-8.76-3.78-11.823-4.882   c-1.468,4.305-2.265,8.92-2.265,13.721c0,7.642,2.018,14.812,5.549,21.008c0.248-0.261,0.479-0.614,0.57-1.071   C13.855,68.205,14.298,66.389,14.761,64.666z"></path><path d="M36.003,67.281c0.351-0.995,0.247-1.282-0.224-1.902c-0.487-0.641-1.667-0.988-2.53-0.988   c-0.335,0-0.508,0.055-0.564,0.084c-0.065,0.153-0.188,0.374-0.337,0.62c-0.03,0.05-0.061,0.1-0.093,0.151   c-0.032,0.051-0.065,0.103-0.098,0.155c-0.064,0.101-0.13,0.203-0.196,0.304c-0.319,0.488-0.639,0.946-0.743,1.095   c-0.011,0.03-0.032,0.093-0.053,0.189c-0.066,0.293-0.134,0.892,0.074,1.78c0.145,0.243,0.998,1.576,2.246,1.577h0   c0.488,0,0.996-0.204,1.512-0.608c0.12-0.286,0.231-0.55,0.334-0.793c0.045-0.107,0.088-0.209,0.13-0.307   c0.095-0.24,0.188-0.463,0.279-0.67c0-0.001,0-0.001,0.001-0.002c0.049-0.121,0.094-0.234,0.135-0.34   C35.923,67.501,35.966,67.387,36.003,67.281z"></path><path d="M40.13,70.641l0.101-0.362l0.082-0.294c0.001-0.019,0.002-0.046,0.003-0.079c0.012-0.518-0.018-2.657-1.327-3.014   c-0.484-0.132-0.868-0.22-1.165-0.22c-0.425,0-0.746,0.173-1.184,1.009c-0.052,0.099-0.105,0.207-0.16,0.325   c-0.037,0.078-0.074,0.161-0.113,0.248c-0.011,0.028-0.023,0.056-0.035,0.085c-0.073,0.178-0.153,0.369-0.239,0.573c0,0,0,0,0,0   c-0.928,2.339,0.353,3.408,0.408,3.452l0.033,0.026l0.028,0.035c0.157,0.202,0.819,0.437,2.17,0.437c0.002,0,0.004,0,0.007,0   c-0.034-0.435-0.037-0.97,0.12-1.161c0.048-0.058,0.109-0.101,0.177-0.125c0.028-0.025,0.07-0.066,0.105-0.101   c0.198-0.195,0.518-0.509,0.945-0.673L40.13,70.641z"></path><path d="M42.779,72.046c-0.287-0.396-0.503-0.413-0.976-0.45c-0.062-0.005-0.128-0.01-0.197-0.017   c-0.213-0.02-0.46-0.053-0.737-0.13c-0.069-0.019-0.139-0.029-0.207-0.03c-0.005,0-0.01-0.001-0.015-0.001   c-0.137,0-0.267,0.037-0.387,0.095c-0.249,0.119-0.458,0.325-0.614,0.478c-0.072,0.071-0.135,0.133-0.199,0.182   c-0.008,0.118-0.003,0.31,0.008,0.506c0.012,0.212,0.031,0.429,0.048,0.566c0.006,0.044,0.011,0.081,0.016,0.106   c0.001,0.004,0.364,0.986,2.169,2.004c0.233,0.038,0.481,0.058,0.738,0.058c1.107,0,2.174-0.359,2.749-0.592   c-0.368-0.404-0.971-1.072-1.499-1.681C43.303,72.707,42.966,72.304,42.779,72.046z"></path><path d="M80.955,56.091c-0.039-0.117-0.078-0.234-0.117-0.35c-3.49-10.292-8.596-14.516-10.443-15.761l-0.057-0.039   c-0.167-0.114-0.369-0.172-0.602-0.172c-0.428,0-0.808,0.193-0.812,0.195l-1,0.309c-0.088,0.042-0.173,0.083-0.254,0.122   c-0.318,0.153-0.58,0.278-0.79,0.379c0.045,0.024,0.088,0.052,0.13,0.082l0.023,0.017l0.029,0.021l0.036,0.053   c0.023,0.034,0.077,0.116,0.158,0.237c0.909,1.376,5.249,8.068,7.638,13.971c0.046,0.114,0.092,0.228,0.137,0.341   c0.011,0.027,0.021,0.054,0.031,0.081c0.034,0.088,0.068,0.175,0.102,0.262c0.011,0.028,0.021,0.055,0.032,0.083   c0.044,0.116,0.087,0.232,0.13,0.348c0.667,1.818,1.106,3.519,1.151,4.913c0.001,0.043,0.004,0.088,0.005,0.131   c0.108,0.025,0.21,0.046,0.309,0.067c0.141,0.029,0.274,0.053,0.397,0.071c0.119,0.018,0.23,0.032,0.332,0.041   c0.105,0.01,0.202,0.015,0.29,0.015c0.039,0,0.074-0.001,0.108-0.003c0.167-0.008,0.274-0.036,0.362-0.071   c0.045-0.018,0.085-0.037,0.126-0.057c0.126-0.062,0.284-0.14,0.521-0.14c0.267-0.016,1.663-0.596,3.155-1.269   c-0.315-1.247-0.654-2.424-1.013-3.532C81.03,56.32,80.993,56.205,80.955,56.091z"></path><path d="M68.021,62.813c-0.395-1.108-0.395-1.108-1.716-2.418c-0.413-0.41-0.921-0.914-1.592-1.598   c-2.952-2.625-9.058-6.451-13.517-9.246c-1.429-0.895-2.663-1.668-3.623-2.294c-0.599-0.39-1.272-0.726-2.008-1.01   c-0.141,0.025-0.293,0.066-0.458,0.125c-0.436,0.157-1.061,0.416-1.666,0.667c-1.366,0.565-1.832,0.745-2.062,0.758   c-0.055,0.027-0.172,0.129-0.251,0.198c-0.225,0.197-0.478,0.418-0.794,0.439c-0.075,0.055-0.154,0.114-0.236,0.175   c-0.883,0.657-2.094,1.557-3.478,1.895c-0.243,0.059-0.522,0.152-0.817,0.25c-0.674,0.224-1.437,0.478-2.182,0.478   c-1.154,0-1.983-0.627-2.464-1.864l-0.021-0.055l-0.007-0.146c-0.026-0.499,0.029-0.615,0.416-0.885   c0.113-0.078,0.267-0.186,0.484-0.363c0.085-0.07,0.189-0.152,0.306-0.246c0.609-0.488,1.623-1.301,2.508-2.179   c-0.8,0.102-1.608,0.189-2.232,0.189c-0.312,0-0.556-0.022-0.746-0.066c-0.667-0.157-1.374-0.291-1.767-0.362   c-0.012,0.019-0.025,0.04-0.038,0.061c-0.276,1.059-0.726,2.652-1.313,4.714c-1.21,4.257-2.868,10.088-2.868,11.36   c0,0.705-0.019,1.436-0.038,2.15c0.334-0.109,0.704-0.214,1.088-0.294c0.145-0.03,0.291-0.057,0.438-0.079   c0.147-0.022,0.295-0.04,0.442-0.052c0.063-0.005,0.126-0.009,0.188-0.012c0.082-0.004,0.163-0.006,0.244-0.006   c0.202,0,0.393,0.014,0.574,0.04c0.277,0.04,0.53,0.11,0.754,0.211l0.057,0.026l0.049,0.038c0.26,0.204,0.818,0.565,1.561,1.025   c0.146,0.09,0.3,0.185,0.46,0.283c0.144-0.236,0.252-0.431,0.296-0.544c0.128-0.332,0.551-0.508,1.223-0.508   c1.031,0,2.442,0.399,3.106,1.274c0.359,0.473,0.542,0.851,0.574,1.278c0.267-0.18,0.568-0.27,0.93-0.27   c0.379,0,0.799,0.094,1.355,0.245c2.053,0.56,1.863,3.738,1.853,3.873l-0.002,0.037l-0.058,0.21   c0.311,0.195,0.604,0.382,0.877,0.559c0.005,0,0.009,0.001,0.014,0.001c0.502,0.04,1.021,0.081,1.504,0.747   c0.169,0.234,0.478,0.604,0.828,1.008c0.22,0.197,0.444,0.401,0.674,0.611c1.291,1.178,2.897,2.644,3.973,2.644   c0.09,0,0.176-0.011,0.255-0.031c1.369-0.36,1.996-1.15,2.128-1.679c-2.014-2.111-5.149-3.197-5.181-3.208   c-0.269-0.091-0.413-0.384-0.322-0.652c0.07-0.208,0.266-0.349,0.487-0.349c0.056,0,0.111,0.009,0.164,0.027   c0.037,0.013,3.582,1.24,5.765,3.655l0.007,0.007c0.04,0.044,0.079,0.088,0.118,0.133c0.971,0.667,1.612,0.952,2.138,0.952   c0.325,0,0.627-0.108,0.98-0.349c0.995-0.681,1.456-1.191,1.428-2.289c-1.437-0.884-5-4.586-5.416-5.019   c-0.196-0.205-0.189-0.531,0.016-0.727c0.196-0.188,0.538-0.181,0.727,0.016c1.419,1.48,4.354,4.41,5.3,4.906   c0.119,0.062,0.223,0.114,0.318,0.157c0.318,0.145,0.546,0.206,0.764,0.206c0.503,0,1.078-0.353,2.053-1.261   c1.382-1.287,0.8-2.791,0.487-3.599c-0.027-0.069-0.051-0.131-0.07-0.184c-0.023-0.044-0.077-0.116-0.156-0.208   c-0.067-0.079-0.153-0.172-0.254-0.28c-0.079-0.084-0.168-0.176-0.265-0.274c-1.347-1.37-4.267-4.038-4.979-4.613   c-0.112-0.069-0.186-0.132-0.244-0.246l-0.138-0.277l0.358-0.507l0.309,0.041c0.11,0.015,0.187,0.058,0.284,0.131   c0.122,0.07,0.41,0.219,0.69,0.364c0.272,0.141,0.542,0.283,0.81,0.424c2.039,1.08,3.882,2.156,4.575,3.013   c0.037,0.045,0.071,0.091,0.102,0.135c0.116,0.171,0.28,0.352,0.477,0.539c0.092,0.088,0.192,0.177,0.298,0.266   c0.101,0.086,0.207,0.172,0.318,0.258c0.883,0.687,2.015,1.361,2.704,1.731c0.001,0,0.002,0,0.003,0   c0.288,0,0.998-0.594,1.523-1.275c0.088-0.137,0.883-1.428,0.652-2.931L68.021,62.813z"></path><path d="M74.268,55.548c-2.454-6.089-7.134-13.236-7.711-14.108c-0.163,0.071-0.309,0.14-0.418,0.192l-0.126,0.059   c-0.105,0.048-0.286,0.093-0.511,0.132c-0.111,0.019-0.232,0.037-0.36,0.054c-0.702,0.092-1.611,0.146-2.11,0.146   c-0.234,0-0.418-0.009-0.548-0.028c-0.22-0.031-0.742-0.178-1.648-0.433c-1.608-0.454-4.038-1.141-5.091-1.181   c-1.251-0.047-4.279-0.867-6.088-1.356c-0.541-0.146-0.972-0.263-1.127-0.296c-0.489,0.009-3.27,1.021-5.303,1.76   c-1.391,0.506-2.704,0.984-3.389,1.189c-1.73,0.519-2.049,0.952-2.995,2.526c-0.065,0.108-0.137,0.218-0.214,0.327   c-0.093,0.133-0.194,0.267-0.301,0.401c-0.11,0.137-0.226,0.274-0.347,0.41c-1.03,1.158-2.426,2.277-3.196,2.894   c-0.116,0.093-0.217,0.174-0.301,0.243c-0.239,0.194-0.413,0.316-0.528,0.396c-0.041,0.028-0.085,0.059-0.114,0.081   c0,0.042,0.003,0.109,0.007,0.173l0.001,0.029c0.49,1.209,1.243,1.35,1.769,1.35c0.628,0,1.332-0.234,1.954-0.441   c0.31-0.103,0.602-0.2,0.874-0.267c1.242-0.303,2.384-1.153,3.218-1.773c0.122-0.091,0.237-0.176,0.344-0.254l0.129-0.094   l0.156,0.032c0.065-0.007,0.255-0.173,0.357-0.262c0.208-0.182,0.423-0.37,0.687-0.376c0.198-0.031,1.137-0.42,1.825-0.704   c0.431-0.178,0.87-0.36,1.251-0.509c0.161-0.063,0.312-0.121,0.446-0.169c0.04-0.015,0.08-0.028,0.12-0.041   c0.244-0.08,0.474-0.129,0.686-0.148c0.063-0.006,0.125-0.009,0.185-0.009c0.453,0,0.705,0.158,0.81,0.245l8.057,4.814   c0.374,0.254,9.17,6.232,10.1,6.98c0.811,0.651,2.665,2.594,3.219,3.18c0.277-0.111,0.87-0.415,1.657-1.202   c0.389-0.389,1.097-0.944,1.889-1.525c0.097-0.071,0.194-0.142,0.293-0.214c0.891-0.645,1.85-1.301,2.566-1.783   c-0.013-0.034-0.026-0.068-0.04-0.101C74.359,55.776,74.314,55.662,74.268,55.548z"></path><path d="M87.825,31.127c-1.148,0.202-2.855,0.856-4.635,2.97l-0.065,0.077l-0.096,0.032c-3.11,1.051-6.708,2.373-9.436,3.423   c-0.156,0.06-0.308,0.119-0.457,0.177c-1.357,0.526-2.463,0.971-3.125,1.259c0.099,0.014,0.193,0.037,0.285,0.066   c0.161,0.05,0.312,0.119,0.45,0.214l0.053,0.036c1.905,1.284,7.19,5.65,10.76,16.244c0.039,0.116,0.078,0.235,0.117,0.353   c0.038,0.116,0.077,0.231,0.115,0.349c0.338,1.052,0.658,2.165,0.958,3.337c0.03,0.118,0.06,0.236,0.09,0.356   c0.03,0.119,0.059,0.239,0.088,0.359c0.427,1.763,0.805,3.662,1.119,5.705c0.062,0.401,0.122,0.806,0.179,1.219   c0.011-0.006,0.023-0.012,0.034-0.017c0.151-0.076,0.307-0.155,0.469-0.24c1.505-0.785,3.462-1.934,5.298-3.048   c1.49-4.334,2.301-8.984,2.301-13.824C92.324,43.325,90.702,36.856,87.825,31.127z"></path></g></svg>