<svg xmlns="http://www.w3.org/2000/svg" xmlns:xlink="http://www.w3.org/1999/xlink" version="1.1" id="Layer_1" x="0px" y="0px" viewBox="0 0 100 100" enable-background="new 0 0 100 100" xml:space="preserve" height="100px" width="100px">
<path d="M94.708,24.854c-0.3-3.607-1.453-6.952-3.334-9.675c-1.443-2.089-8.617-9.001-8.617-9.001  c-0.621-0.621-1.463-0.97-2.341-0.97c-0.878,0-1.72,0.349-2.341,0.97L61.897,22.355c-1.293,1.293-1.293,3.39,0,4.683  c0,0,7.393,7.665,7.369,10.334c-0.033,3.688-2.152,10.115-12.053,19.787c-0.019,0.018-0.037,0.037-0.055,0.055  c-9.731,9.963-16.179,12.054-19.874,12.054c-2.611,0-10.247-7.369-10.247-7.369c-0.647-0.647-1.494-0.97-2.341-0.97  c-0.847,0-1.695,0.323-2.341,0.97L6.177,78.075c-0.621,0.621-0.97,1.463-0.97,2.341c0,0.878,0.349,1.72,0.97,2.341  c0,0,10.438,12.033,20.683,12.033c12,0,26.469-8.385,43.007-24.923C87.379,52.357,95.736,37.212,94.708,24.854z M29.471,69.016  L13.294,85.193l-4.776-4.776L24.696,64.24L29.471,69.016z M31.813,71.357c0.049-0.049,0.084-0.107,0.129-0.158  c1.07,0.648,2.833,1.38,5.342,1.38c4.696,0,12-2.564,22.243-13.051c16.089-15.715,13.531-24.513,11.671-27.585  c0.051-0.045,0.109-0.08,0.158-0.129l16.169-16.169c3.643,3.978,12.676,19.207-19.999,51.882  C48.419,86.634,35.275,91.48,26.861,91.48c-5.977,0-9.566-2.442-11.216-3.954L31.813,71.357z M85.191,13.296L69.015,29.472  l-4.776-4.776L80.416,8.52L85.191,13.296z"/>
</svg>