<svg xmlns="http://www.w3.org/2000/svg" xmlns:xlink="http://www.w3.org/1999/xlink" version="1.1" id="Layer_1" x="0px" y="0px" width="100px" height="100px" viewBox="0 0 100 100" enable-background="new 0 0 100 100" xml:space="preserve">
<g>
	<g>
		<path d="M49.639,54.414c1.178,0,2.136-0.959,2.136-2.137s-0.958-2.136-2.136-2.136c-1.178,0-2.137,0.958-2.137,2.136    S48.46,54.414,49.639,54.414z M49.639,51.058c0.674,0,1.22,0.547,1.22,1.22c0,0.675-0.546,1.221-1.22,1.221    s-1.221-0.546-1.221-1.221C48.418,51.604,48.965,51.058,49.639,51.058z M40.443,52.121c0,5.079,4.117,9.195,9.195,9.195    c5.078,0,9.195-4.116,9.195-9.195c0-5.078-4.117-9.194-9.195-9.194C44.56,42.927,40.443,47.043,40.443,52.121z M52.774,52.277    c0,1.729-1.406,3.137-3.136,3.137s-3.137-1.407-3.137-3.137c0-1.729,1.407-3.136,3.137-3.136S52.774,50.548,52.774,52.277z     M93.653,50.424C92.863,49.336,74.029,23.792,50,23.792c-24.031,0-42.864,25.543-43.655,26.631L5,52.278l1.345,1.853    C7.136,55.22,25.969,80.764,50,80.764c24.03,0,42.864-25.544,43.654-26.631L95,52.278L93.653,50.424z M50,74.455    c-17.341,0-32.447-16.545-37.087-22.181C17.545,46.636,32.617,30.101,50,30.101c17.343,0,32.447,16.543,37.088,22.181    C82.454,57.919,67.382,74.455,50,74.455z M39.815,42.437l-3.367-4.025c-2.413,2.292-4.188,5.202-5.127,8.404l5.115,1.155    C37.103,45.861,38.252,43.984,39.815,42.437z M49.442,38.454c1.01,0,2.028,0.113,3.024,0.339c1.034,0.233,2.014,0.579,2.93,1.021    L58.08,35.3c-1.383-0.709-2.875-1.257-4.461-1.615c-1.373-0.31-2.779-0.467-4.177-0.467c-4.002,0-7.945,1.303-11.181,3.679    l3.369,4.027C43.919,39.327,46.662,38.454,49.442,38.454z M57.934,62.84c-2.408,1.902-5.414,2.95-8.461,2.95    c-1.011,0-2.028-0.114-3.025-0.34c-6.961-1.571-11.481-8.23-10.529-15.175l-5.121-1.156c-1.578,9.766,4.718,19.231,14.497,21.439    c1.374,0.31,2.78,0.467,4.178,0.467c4.219,0,8.377-1.447,11.706-4.076c0.881-0.695,1.693-1.469,2.431-2.304l-4.138-3.223    C58.999,61.928,58.487,62.402,57.934,62.84z M60.109,36.509l-2.682,4.514c4.314,3.107,6.602,8.603,5.357,14.108    c-0.361,1.604-0.991,3.094-1.857,4.43l4.132,3.221c1.336-1.957,2.306-4.162,2.834-6.497    C69.648,48.513,66.318,40.757,60.109,36.509z"/>
	</g>
</g>
</svg>