<?xml version="1.0" encoding="UTF-8" standalone="no"?>
<svg
   xmlns:dc="http://purl.org/dc/elements/1.1/"
   xmlns:cc="http://creativecommons.org/ns#"
   xmlns:rdf="http://www.w3.org/1999/02/22-rdf-syntax-ns#"
   xmlns:svg="http://www.w3.org/2000/svg"
   xmlns="http://www.w3.org/2000/svg"
   xmlns:sodipodi="http://sodipodi.sourceforge.net/DTD/sodipodi-0.dtd"
   xmlns:inkscape="http://www.inkscape.org/namespaces/inkscape"
   version="1.1"
   id="icon"
   x="0px"
   y="0px"
   viewBox="0 0 32 32"
   enable-background="new 0 0 32 32"
   xml:space="preserve"
   height="100px"
   width="100px"
   inkscape:version="0.48.5 r10040"
   sodipodi:docname="scraper.svg"><metadata
     id="metadata3143"><rdf:RDF><cc:Work
         rdf:about=""><dc:format>image/svg+xml</dc:format><dc:type
           rdf:resource="http://purl.org/dc/dcmitype/StillImage" /></cc:Work></rdf:RDF></metadata><defs
     id="defs3141" /><sodipodi:namedview
     pagecolor="#ffffff"
     bordercolor="#666666"
     borderopacity="1"
     objecttolerance="10"
     gridtolerance="10"
     guidetolerance="10"
     inkscape:pageopacity="0"
     inkscape:pageshadow="2"
     inkscape:window-width="640"
     inkscape:window-height="480"
     id="namedview3139"
     showgrid="false" /><g
     id="g3133"><path
       d="m 26,24 c -1.102783,0 -2,0.897217 -2,2 0,1.102783 0.897217,2 2,2 1.102783,0 2,-0.897217 2,-2 0,-1.102783 -0.897217,-2 -2,-2 z m 0,3 c -0.552246,0 -1,-0.447754 -1,-1 0,-0.552307 0.447754,-1 1,-1 0.552307,0 1,0.447693 1,1 0,0.552246 -0.447693,1 -1,1 z"
       id="path3135"
       inkscape:connector-curvature="0"
       style="stroke-width:10" /><path
       d="M28.8786621,23.4643555c-0.0279541-0.0279541-0.057373-0.0540771-0.0880737-0.0783081   c-0.2041016-0.1630859-8.2337036-6.614502-9.8704834-7.9295654c-0.3115845-1.6182861-1.7998047-7.7504272-7.2130127-13.1636353   C11.5118408,2.0975952,11.2559204,2,11,2s-0.5118408,0.0975952-0.7070923,0.2928467l-8,8   c-0.390564,0.390564-0.390564,1.0237427,0,1.4142456c5.4130859,5.413147,11.545105,6.9014282,13.1635132,7.2130127   l7.9354248,9.8777466c0.0227051,0.0281982,0.046875,0.0551758,0.0725098,0.0808105   C24.187439,29.6017456,25.1488647,30,26.1715088,30s1.9840698-0.3982544,2.7071533-1.1213379   C30.3713989,27.3859253,30.3713989,24.9570923,28.8786621,23.4643555z M3,11l8-8c6,6,7,13,7,13l-2,2C16,18,9,17,3,11z    M28.1715698,28.1715698C27.6192627,28.7238159,26.8953857,29,26.1715088,29s-1.4477539-0.2761841-2.000061-0.8284302   l-7.5548706-9.4040527c0.0286255-0.0229492,0.06427-0.0341797,0.0905151-0.0604248l2-2   c0.0264282-0.0264282,0.0343018-0.0640259,0.057373-0.0928955c2.3556519,1.8926392,9.4060059,7.557251,9.4071045,7.557251   C29.276123,25.276062,29.276123,27.0669556,28.1715698,28.1715698z"
       id="path3137" /></g></svg>