<?xml version="1.0" encoding="UTF-8" standalone="no"?>
<svg
   xmlns:dc="http://purl.org/dc/elements/1.1/"
   xmlns:cc="http://creativecommons.org/ns#"
   xmlns:rdf="http://www.w3.org/1999/02/22-rdf-syntax-ns#"
   xmlns:svg="http://www.w3.org/2000/svg"
   xmlns="http://www.w3.org/2000/svg"
   xmlns:sodipodi="http://sodipodi.sourceforge.net/DTD/sodipodi-0.dtd"
   xmlns:inkscape="http://www.inkscape.org/namespaces/inkscape"
   version="1.1"
   id="Layer_1"
   x="0px"
   y="0px"
   width="100px"
   height="100px"
   viewBox="0 0 100 100"
   enable-background="new 0 0 100 100"
   xml:space="preserve"
   inkscape:version="0.48.5 r10040"
   sodipodi:docname="table.svg"><metadata
     id="metadata3031"><rdf:RDF><cc:Work
         rdf:about=""><dc:format>image/svg+xml</dc:format><dc:type
           rdf:resource="http://purl.org/dc/dcmitype/StillImage" /><dc:title></dc:title></cc:Work></rdf:RDF></metadata><defs
     id="defs3029" /><sodipodi:namedview
     pagecolor="#ffffff"
     bordercolor="#666666"
     borderopacity="1"
     objecttolerance="10"
     gridtolerance="10"
     guidetolerance="10"
     inkscape:pageopacity="0"
     inkscape:pageshadow="2"
     inkscape:window-width="1163"
     inkscape:window-height="1226"
     id="namedview3027"
     showgrid="false"
     inkscape:zoom="4.8508143"
     inkscape:cx="20.901916"
     inkscape:cy="80.738711"
     inkscape:window-x="1683"
     inkscape:window-y="115"
     inkscape:window-maximized="0"
     inkscape:current-layer="Layer_1" /><path
     d="M 8.0398873,9.276793 V 90.723207 H 91.960113 V 9.276793 H 8.0398873 z M 86.223326,41.58007 H 63.888797 V 30.02038 h 2.010729 20.324639 V 41.58007 z M 62.167593,56.766568 H 37.832407 V 43.244834 H 62.167593 V 56.766568 z M 37.832407,41.58007 V 30.02038 H 39.837261 60.1619 62.167593 V 41.58007 H 37.832407 z M 34.101313,30.02038 h 2.010729 V 41.58007 H 13.776674 V 30.02038 h 20.324639 z m 2.010729,13.224454 V 56.766568 H 13.776674 V 43.244834 H 36.112042 z M 13.776674,58.431333 H 36.112042 V 71.931076 H 13.776674 V 58.431333 z m 24.055733,0 H 62.167593 V 71.931076 H 37.832407 V 58.431333 z m 26.05639,0 H 86.223326 V 71.931076 H 63.888797 V 58.431333 z m 0,-1.664765 V 43.244834 H 86.223326 V 56.766568 H 63.888797 z M 13.776674,85.15553 V 73.606429 H 36.112042 V 85.15553 H 13.776674 z m 24.055733,0 V 73.606429 H 62.167593 V 85.15553 H 37.832407 z M 63.888797,73.606429 H 86.223326 V 85.15553 H 63.888797 V 73.606429 z"
     id="path3025"
     inkscape:connector-curvature="0" /></svg>